<?xml version="1.0" encoding="utf-8"?>
<!-- Generator: Adobe Illustrator 17.0.2, SVG Export Plug-In . SVG Version: 6.00 Build 0)  -->
<!DOCTYPE svg PUBLIC "-//W3C//DTD SVG 1.1//EN" "http://www.w3.org/Graphics/SVG/1.1/DTD/svg11.dtd">
<svg version="1.1" id="Layer_1" xmlns="http://www.w3.org/2000/svg" xmlns:xlink="http://www.w3.org/1999/xlink" x="0px" y="0px"
	 width="479.5px" height="371.512px" viewBox="11 99 479.5 371.512" enable-background="new 11 99 479.5 371.512"
	 xml:space="preserve">
<g>
	<path d="M77.5,99h413v316c-0.336,15-5.672,27.836-16,38.5c-10.336,10.664-22.5,16.328-36.5,17H79c-22,0.328-38.836-5.836-50.5-18.5
		C16.828,439.336,11,419,11,391V160.5h66.5V99z M77.5,391V194H45v197c0,14.336,1.414,25,4.25,32c2.828,7,6.75,10.5,11.75,10.5
		s9-3.5,12-10.5S77.5,405.336,77.5,391z M456.5,415V133H111v258c0,19.672-3.172,34.836-9.5,45.5H438
		c5.664-0.328,10.164-2.828,13.5-7.5C454.828,424.336,456.5,419.672,456.5,415z M244,240.5v11h-79v-11H244z M244,277.5v11h-79v-11
		H244z M244,313v11h-79v-11H244z M244,347.5v11h-79v-11H244z M244,383v11h-79v-11H244z M176.5,204v-21.5H385V204H176.5z
		 M275.5,367.5v-127h133v127H275.5z"/>
</g>
</svg>
